<?xml version="1.0" encoding="utf-8"?>
<!-- Generator: Adobe Illustrator 21.0.2, SVG Export Plug-In . SVG Version: 6.00 Build 0)  -->
<svg version="1.1" id="레이어_1" xmlns="http://www.w3.org/2000/svg" xmlns:xlink="http://www.w3.org/1999/xlink" x="0px"
	 y="0px" viewBox="0 0 40 40" width="40px" height="40px" style="enable-background:new 0 0 40 40;" xml:space="preserve">
<style type="text/css">
	.st0{fill:#e82323;}
</style>
<g>
	<path class="st0" d="M20,40C9,40,0,31,0,20C0,9,9,0,20,0c11,0,20,9,20,20C40,31,31,40,20,40z M20,4C11.2,4,4,11.2,4,20
		s7.2,16,16,16s16-7.2,16-16S28.8,4,20,4z"/>
	<path class="st0" d="M20,23.8c-1.9,0-3.5-1.6-3.5-3.5v-8.6c0-1.9,1.6-3.5,3.5-3.5c1.9,0,3.5,1.6,3.5,3.5v8.6
		C23.5,22.3,21.9,23.8,20,23.8z"/>
	<circle class="st0" cx="20" cy="29" r="3.5"/>
</g>
</svg>
