<?xml version="1.0" encoding="utf-8"?>
<!-- Generator: Adobe Illustrator 16.0.0, SVG Export Plug-In . SVG Version: 6.00 Build 0)  -->
<!DOCTYPE svg PUBLIC "-//W3C//DTD SVG 1.1//EN" "http://www.w3.org/Graphics/SVG/1.1/DTD/svg11.dtd">
<svg version="1.1" id="Layer_1_copy" xmlns="http://www.w3.org/2000/svg" xmlns:xlink="http://www.w3.org/1999/xlink" x="0px"
	 y="0px" width="75px" height="75px" viewBox="0 0 75 75" enable-background="new 0 0 75 75" xml:space="preserve">
<path fill="#FFFFFF" d="M47.369,37.5l20.088-20.087c2.723-2.725,2.725-7.143,0-9.868c-2.727-2.726-7.145-2.725-9.867,0L37.5,27.634
	L17.412,7.544c-2.726-2.726-7.144-2.726-9.868,0c-2.725,2.725-2.725,7.143,0,9.869L27.632,37.5L7.544,57.589
	c-2.726,2.725-2.726,7.144,0,9.868c2.725,2.724,7.142,2.724,9.868-0.001l20.087-20.089L57.59,67.456
	c2.723,2.724,7.141,2.725,9.867,0.001c2.725-2.726,2.723-7.145,0-9.868L47.369,37.5z"/>
</svg>
