<?xml version="1.0" encoding="utf-8"?>
<!-- Generator: Adobe Illustrator 21.0.2, SVG Export Plug-In . SVG Version: 6.00 Build 0)  -->
<svg version="1.1" id="레이어_1" xmlns="http://www.w3.org/2000/svg" xmlns:xlink="http://www.w3.org/1999/xlink" x="0px"
	 y="0px" viewBox="0 0 68 68" style="enable-background:new 0 0 68 68;" xml:space="preserve">
<style type="text/css">
	.st0{fill:#545454;}
	.st1{fill:#EE6131;}
</style>
<g>
	<g>
		<g>
			<path class="st0" d="M61.4,54H6.6C2.9,54,0,51,0,47.2V6.8C0,3,2.9,0,6.6,0h54.9C65.1,0,68,3,68,6.8v40.5C68,51,65.1,54,61.4,54z
				 M6.6,4C5.2,4,4,5.2,4,6.8v40.5C4,48.8,5.2,50,6.6,50h54.9c1.4,0,2.6-1.2,2.6-2.8V6.8C64,5.2,62.8,4,61.4,4H6.6z"/>
		</g>
		<path class="st0" d="M66,42H2c-1.1,0-2-0.9-2-2s0.9-2,2-2h64c1.1,0,2,0.9,2,2S67.1,42,66,42z"/>
	</g>
	<path class="st0" d="M44,67.9H24c-0.6,0-1.1-0.3-1.5-0.7c-0.4-0.4-0.5-1-0.4-1.6l2.5-13c0.2-1.1,1.2-1.7,2.3-1.5
		c1.1,0.2,1.7,1.2,1.5,2.3l-2.1,10.7h15.3l-2.1-10.7c-0.2-1.1,0.5-2.1,1.5-2.3c1.1-0.2,2.1,0.5,2.3,1.5l2.5,13
		c0.1,0.6,0,1.2-0.4,1.6S44.6,67.9,44,67.9z"/>
	<path class="st0" d="M47,68.1H21c-1.1,0-2.1-0.9-2.1-2.1s0.9-2.1,2.1-2.1h26c1.1,0,2.1,0.9,2.1,2.1S48.1,68.1,47,68.1z"/>
	<g>
		<path class="st1" d="M34,33.5c-6.6,0-12-5.4-12-12s5.4-12,12-12c2.1,0,4.2,0.6,6,1.6c0.7,0.4,1,1.3,0.5,2c-0.4,0.7-1.3,1-2,0.5
			c-1.4-0.8-2.9-1.2-4.5-1.2c-5,0-9,4-9,9s4,9,9,9c5,0,9-4,9-9c0-0.5,0-1-0.1-1.5c-0.1-0.8,0.4-1.6,1.2-1.7c0.8-0.1,1.6,0.4,1.7,1.2
			c0.1,0.7,0.2,1.3,0.2,2C46,28.1,40.6,33.5,34,33.5z"/>
		<path class="st1" d="M33.6,26.5C33.6,26.5,33.6,26.5,33.6,26.5c-0.4,0-0.8-0.2-1.1-0.5l-4.9-5.5c-0.6-0.6-0.5-1.6,0.1-2.1
			c0.6-0.6,1.6-0.5,2.1,0.1l3.8,4.3l8-8.4c0.6-0.6,1.5-0.6,2.1-0.1s0.6,1.5,0.1,2.1L34.7,26C34.4,26.3,34,26.5,33.6,26.5z"/>
	</g>
</g>
</svg>
