<?xml version="1.0" encoding="utf-8"?>
<!-- Generator: Adobe Illustrator 16.0.0, SVG Export Plug-In . SVG Version: 6.00 Build 0)  -->
<!DOCTYPE svg PUBLIC "-//W3C//DTD SVG 1.1//EN" "http://www.w3.org/Graphics/SVG/1.1/DTD/svg11.dtd">
<svg version="1.1" id="Layer_1" xmlns="http://www.w3.org/2000/svg" xmlns:xlink="http://www.w3.org/1999/xlink" x="0px" y="0px"
	 width="150px" height="70px" viewBox="0 0 150 70" enable-background="new 0 0 150 70" xml:space="preserve">
<g opacity="0.05">
	<path fill="#FFFFFF" d="M27.412,34.998c-0.263,0-0.524-0.069-0.759-0.214L17.5,29.192l-9.153,5.594
		c-0.492,0.303-1.116,0.282-1.588-0.046c-0.475-0.329-0.71-0.905-0.604-1.474l2.171-11.469l-7.841-7.036
		c-0.423-0.38-0.586-0.969-0.423-1.514c0.166-0.545,0.63-0.942,1.192-1.022l10.032-1.423L16.19,0.752c0.49-1.003,2.129-1.003,2.62,0
		l4.906,10.051l10.029,1.423c0.562,0.08,1.026,0.479,1.192,1.022c0.164,0.543,0,1.134-0.424,1.514l-7.84,7.036l2.171,11.469
		c0.107,0.568-0.128,1.145-0.604,1.474C27.993,34.912,27.702,34.998,27.412,34.998z"/>
</g>
<g opacity="0.05">
	<path fill="#FFFFFF" d="M102.412,34.998c-0.263,0-0.524-0.069-0.759-0.214L92.5,29.192l-9.152,5.594
		c-0.492,0.303-1.116,0.282-1.589-0.046c-0.475-0.329-0.71-0.905-0.604-1.474l2.171-11.469l-7.841-7.036
		c-0.423-0.38-0.586-0.969-0.423-1.514c0.166-0.545,0.63-0.942,1.192-1.022l10.032-1.423L91.19,0.752c0.49-1.003,2.129-1.003,2.62,0
		l4.905,10.051l10.029,1.423c0.562,0.08,1.026,0.479,1.192,1.022c0.164,0.543,0,1.134-0.424,1.514l-7.84,7.036l2.171,11.469
		c0.107,0.568-0.128,1.145-0.604,1.474C102.993,34.912,102.702,34.998,102.412,34.998z"/>
</g>
<g opacity="0.05">
	<path fill="#FFFFFF" d="M67.412,69.998c-0.263,0-0.524-0.068-0.759-0.213L57.5,64.193l-9.153,5.594
		c-0.492,0.303-1.116,0.281-1.588-0.047c-0.475-0.328-0.71-0.904-0.604-1.473l2.171-11.469l-7.841-7.037
		c-0.423-0.379-0.586-0.969-0.423-1.514c0.166-0.545,0.63-0.941,1.192-1.021l10.032-1.424l4.904-10.05
		c0.49-1.003,2.129-1.003,2.62,0l4.906,10.05l10.029,1.424c0.562,0.08,1.026,0.479,1.192,1.021c0.164,0.543,0,1.135-0.424,1.514
		l-7.84,7.037l2.171,11.469c0.107,0.568-0.128,1.145-0.604,1.473C67.993,69.912,67.702,69.998,67.412,69.998z"/>
</g>
<g opacity="0.05">
	<path fill="#FFFFFF" d="M142.412,69.998c-0.263,0-0.524-0.068-0.759-0.213l-9.153-5.592l-9.152,5.594
		c-0.492,0.303-1.116,0.281-1.589-0.047c-0.475-0.328-0.71-0.904-0.604-1.473l2.171-11.469l-7.841-7.037
		c-0.423-0.379-0.587-0.969-0.423-1.514c0.165-0.545,0.63-0.941,1.191-1.021l10.032-1.424l4.904-10.05
		c0.49-1.003,2.129-1.003,2.62,0l4.905,10.05l10.029,1.424c0.562,0.08,1.026,0.479,1.192,1.021c0.164,0.543,0,1.135-0.424,1.514
		l-7.84,7.037l2.171,11.469c0.107,0.568-0.128,1.145-0.604,1.473C142.993,69.912,142.702,69.998,142.412,69.998z"/>
</g>
</svg>
