<?xml version="1.0" encoding="utf-8"?>
<!-- Generator: Adobe Illustrator 16.0.0, SVG Export Plug-In . SVG Version: 6.00 Build 0)  -->
<!DOCTYPE svg PUBLIC "-//W3C//DTD SVG 1.1//EN" "http://www.w3.org/Graphics/SVG/1.1/DTD/svg11.dtd">
<svg version="1.1" id="Layer_1" xmlns="http://www.w3.org/2000/svg" xmlns:xlink="http://www.w3.org/1999/xlink" x="0px" y="0px"
	 width="16px" height="16px" viewBox="0 0 16 16" enable-background="new 0 0 16 16" xml:space="preserve">
<g>
	<path fill="#231815" d="M8,16c-4.411,0-8-3.59-8-8c0-4.411,3.589-8,8-8s8,3.589,8,8C16,12.41,12.411,16,8,16z M8,2
		C4.691,2,2,4.691,2,8s2.691,6,6,6s6-2.691,6-6S11.309,2,8,2z"/>
	<g>
		<path fill="#231815" d="M7,11c-0.162,0-0.324-0.039-0.472-0.119C6.203,10.707,6,10.369,6,10V6c0-0.369,0.203-0.708,0.528-0.882
			c0.324-0.175,0.719-0.156,1.026,0.05l3,2C10.833,7.354,11,7.666,11,8s-0.167,0.646-0.445,0.833l-3,2C7.387,10.943,7.194,11,7,11z"
			/>
	</g>
</g>
</svg>
