<?xml version="1.0" encoding="utf-8"?>
<!-- Generator: Adobe Illustrator 16.0.0, SVG Export Plug-In . SVG Version: 6.00 Build 0)  -->
<!DOCTYPE svg PUBLIC "-//W3C//DTD SVG 1.1//EN" "http://www.w3.org/Graphics/SVG/1.1/DTD/svg11.dtd">
<svg version="1.1" id="Layer_1" xmlns="http://www.w3.org/2000/svg" xmlns:xlink="http://www.w3.org/1999/xlink" x="0px" y="0px"
	 width="120px" height="48px" viewBox="0 0 120 48" enable-background="new 0 0 120 48" xml:space="preserve">
<g>
	<path fill="#5092ff" d="M67.08,25.386c-0.188,0-0.375-0.05-0.542-0.153L60,21.239l-6.538,3.995
		c-0.351,0.216-0.797,0.201-1.135-0.033c-0.339-0.235-0.507-0.646-0.431-1.053l1.551-8.191l-5.601-5.026
		c-0.302-0.271-0.419-0.692-0.302-1.081c0.118-0.389,0.45-0.673,0.851-0.73l7.166-1.016l3.503-7.179c0.35-0.716,1.521-0.716,1.872,0
		l3.504,7.179l7.164,1.016c0.401,0.057,0.733,0.342,0.852,0.73c0.117,0.388,0,0.81-0.303,1.081l-5.6,5.026l1.551,8.191
		c0.076,0.407-0.092,0.818-0.432,1.053C67.495,25.324,67.287,25.386,67.08,25.386z"/>
</g>
<g>
	<path fill="#ff9976" d="M88.23,32.711c-0.401,0.073-0.81-0.1-1.039-0.439l-4.653-6.89l-7.446,0.406
		c-0.402,0.022-0.779-0.192-0.969-0.552c-0.189-0.357-0.157-0.793,0.084-1.117l4.309-5.785l-2.576-7.554
		c-0.256-0.754,0.564-1.583,1.313-1.323l7.484,2.6l5.734-4.349c0.32-0.243,0.752-0.276,1.107-0.085
		c0.354,0.192,0.566,0.572,0.545,0.978l-0.402,7.515l6.826,4.695c0.34,0.233,0.51,0.644,0.438,1.049
		c-0.071,0.405-0.375,0.73-0.772,0.826l-7.38,1.798l-1.782,7.448c-0.045,0.19-0.141,0.358-0.272,0.491
		C88.631,32.57,88.441,32.672,88.23,32.711z"/>
</g>
<g>
	<path fill="#ff6733" d="M94.789,36.747c-0.073-0.405,0.1-0.815,0.439-1.049l6.89-4.695l-0.407-7.515
		c-0.021-0.405,0.193-0.786,0.551-0.978c0.358-0.191,0.795-0.158,1.119,0.085l5.785,4.348l7.553-2.601
		c0.754-0.259,1.584,0.57,1.324,1.324l-2.6,7.554l4.348,5.784c0.244,0.324,0.277,0.761,0.086,1.119
		c-0.191,0.356-0.572,0.571-0.979,0.55l-7.516-0.406l-4.693,6.89c-0.233,0.341-0.646,0.514-1.051,0.44
		c-0.404-0.072-0.729-0.379-0.824-0.779l-1.799-7.448l-7.447-1.798c-0.19-0.045-0.359-0.143-0.492-0.275
		C94.93,37.15,94.827,36.959,94.789,36.747z"/>
</g>
</svg>
