<?xml version="1.0" encoding="utf-8"?>
<!-- Generator: Adobe Illustrator 16.0.0, SVG Export Plug-In . SVG Version: 6.00 Build 0)  -->
<!DOCTYPE svg PUBLIC "-//W3C//DTD SVG 1.1//EN" "http://www.w3.org/Graphics/SVG/1.1/DTD/svg11.dtd">
<svg version="1.1" id="Layer_1" xmlns="http://www.w3.org/2000/svg" xmlns:xlink="http://www.w3.org/1999/xlink" x="0px" y="0px"
	 width="120px" height="48px" viewBox="0 0 120 48" enable-background="new 0 0 120 48" xml:space="preserve">
<g>
	<path fill="#ff9976" d="M88.23,32.711c-0.401,0.073-0.809-0.099-1.039-0.44l-4.653-6.889l-7.446,0.406
		c-0.402,0.022-0.779-0.192-0.969-0.551c-0.19-0.358-0.157-0.794,0.084-1.118l4.309-5.785l-2.576-7.554
		c-0.256-0.754,0.564-1.583,1.312-1.323l7.485,2.6l5.733-4.349c0.321-0.243,0.753-0.276,1.108-0.085
		c0.354,0.192,0.566,0.572,0.545,0.978l-0.402,7.515l6.826,4.695c0.339,0.233,0.51,0.644,0.437,1.049
		c-0.071,0.405-0.375,0.73-0.772,0.826l-7.38,1.798l-1.782,7.448c-0.045,0.19-0.141,0.358-0.273,0.491
		C88.631,32.57,88.441,32.672,88.23,32.711z"/>
</g>
<g>
	<path fill="#ff6733" d="M94.789,36.747c-0.073-0.405,0.099-0.816,0.439-1.049l6.89-4.695l-0.407-7.515
		c-0.021-0.405,0.193-0.786,0.551-0.978c0.358-0.191,0.795-0.158,1.119,0.085l5.785,4.348l7.553-2.6
		c0.754-0.259,1.583,0.57,1.324,1.324l-2.6,7.553l4.348,5.785c0.244,0.324,0.277,0.76,0.086,1.119
		c-0.192,0.357-0.573,0.572-0.979,0.55l-7.515-0.406l-4.694,6.889c-0.233,0.341-0.645,0.514-1.05,0.44
		c-0.405-0.072-0.729-0.378-0.825-0.779l-1.799-7.448l-7.447-1.798c-0.19-0.045-0.359-0.143-0.492-0.275
		C94.93,37.15,94.827,36.959,94.789,36.747z"/>
</g>
</svg>
